<svg width="200" height="200" viewBox="0 0 200 200" fill="none" xmlns="http://www.w3.org/2000/svg">
<rect width="200" height="200" rx="15" fill="#FFA500"/>
<g filter="url(#filter0_i_8_5)">
<path d="M23.7573 124C21.8205 124 20.8521 122.962 20.8521 120.887V67.5962C20.8521 65.521 21.8205 64.4834 23.7573 64.4834H30.0659C32.0028 64.4834 32.9712 65.521 32.9712 67.5962V84.1147C32.9712 85.7749 32.902 87.4351 32.7637 89.0952H33.0542L53.2251 66.9321C54.7192 65.2996 55.992 64.4834 57.0435 64.4834H65.3857C68.623 64.4834 69.1488 65.6732 66.9629 68.0527L48.0786 88.7217L68.291 120.431C69.8128 122.81 69.2871 124 66.7139 124H58.9526C57.5138 124 56.2687 123.184 55.2173 121.551L39.9438 97.6035L32.9712 105.448V120.887C32.9712 122.962 32.0028 124 30.0659 124H23.7573ZM72.0679 83.6582C71.4591 81.5 71.9157 80.4209 73.4375 80.4209H80.4517C81.7798 80.4209 82.6099 81.1265 82.9419 82.5376L88.5449 106.859C88.877 108.27 89.1675 109.626 89.4165 110.926C89.6655 112.227 89.8177 113.292 89.873 114.122H90.1221C90.1774 113.292 90.3296 112.213 90.5786 110.885C90.8276 109.529 91.1182 108.187 91.4502 106.859L97.3438 82.5376C97.6758 81.1265 98.5059 80.4209 99.834 80.4209H107.388C108.716 80.4209 109.546 81.1265 109.878 82.5376L115.771 106.859C116.104 108.187 116.394 109.529 116.643 110.885C116.892 112.213 117.044 113.292 117.1 114.122H117.349C117.404 113.292 117.556 112.227 117.805 110.926C118.054 109.626 118.345 108.27 118.677 106.859L124.28 82.5376C124.612 81.1265 125.442 80.4209 126.77 80.4209H133.784C135.306 80.4209 135.763 81.5 135.154 83.6582L124.363 121.219C123.837 123.073 122.827 124 121.333 124H113.821C112.244 124 111.234 123.073 110.791 121.219L104.773 96.6074C104.413 95.1963 104.15 94.0618 103.984 93.2041C103.846 92.3464 103.749 91.3918 103.694 90.3403H103.528C103.472 91.3918 103.362 92.3464 103.196 93.2041C103.057 94.0618 102.808 95.1963 102.449 96.6074L96.4307 121.219C95.988 123.073 94.978 124 93.4009 124H85.8887C84.3945 124 83.3846 123.073 82.8589 121.219L72.0679 83.6582ZM144.119 124C142.458 124 141.628 123.17 141.628 121.51V65.2305C141.628 63.5703 142.458 62.7402 144.119 62.7402H150.759C152.419 62.7402 153.25 63.5703 153.25 65.2305V81.998C153.25 83.1048 153.194 84.2116 153.083 85.3184H153.333C154.605 83.1325 156.224 81.6383 158.188 80.8359C160.153 80.0059 162.519 79.5908 165.286 79.5908C169.602 79.5908 173.171 80.9466 175.994 83.6582C178.816 86.3698 180.227 91.3226 180.227 98.5166V121.51C180.227 123.17 179.397 124 177.737 124H171.096C169.436 124 168.606 123.17 168.606 121.51V101.505C168.606 95.473 168.191 91.6685 167.361 90.0913C166.531 88.5142 164.746 87.7256 162.007 87.7256C159.102 87.7256 156.916 88.86 155.449 91.1289C153.983 93.3701 153.25 98.0462 153.25 105.157V121.51C153.25 123.17 152.419 124 150.759 124H144.119Z" fill="white"/>
</g>
<defs>
<filter id="filter0_i_8_5" x="20.8521" y="62.7402" width="159.375" height="65.2598" filterUnits="userSpaceOnUse" color-interpolation-filters="sRGB">
<feFlood flood-opacity="0" result="BackgroundImageFix"/>
<feBlend mode="normal" in="SourceGraphic" in2="BackgroundImageFix" result="shape"/>
<feColorMatrix in="SourceAlpha" type="matrix" values="0 0 0 0 0 0 0 0 0 0 0 0 0 0 0 0 0 0 127 0" result="hardAlpha"/>
<feOffset dy="4"/>
<feGaussianBlur stdDeviation="2"/>
<feComposite in2="hardAlpha" operator="arithmetic" k2="-1" k3="1"/>
<feColorMatrix type="matrix" values="0 0 0 0 0 0 0 0 0 0 0 0 0 0 0 0 0 0 0.25 0"/>
<feBlend mode="normal" in2="shape" result="effect1_innerShadow_8_5"/>
</filter>
</defs>
</svg>
